<mxfile host="65bd71144e">
    <diagram id="pIaEtrtLPv3HG8r1JEND" name="Page-1">
        <mxGraphModel dx="520" dy="429" grid="1" gridSize="10" guides="1" tooltips="1" connect="1" arrows="1" fold="1" page="1" pageScale="1" pageWidth="850" pageHeight="1100" math="0" shadow="0">
            <root>
                <mxCell id="0"/>
                <mxCell id="1" parent="0"/>
                <mxCell id="2" value="" style="rounded=0;whiteSpace=wrap;html=1;" parent="1" vertex="1">
                    <mxGeometry x="80" y="80" width="400" height="300" as="geometry"/>
                </mxCell>
                <mxCell id="3" value="border" style="rounded=0;whiteSpace=wrap;html=1;" parent="1" vertex="1">
                    <mxGeometry x="80" y="80" width="400" height="40" as="geometry"/>
                </mxCell>
                <mxCell id="6" value="Divide" style="labelPosition=center;verticalLabelPosition=middle;align=center;html=1;shape=mxgraph.basic.button;dx=10;" parent="1" vertex="1">
                    <mxGeometry x="90" y="240" width="100" height="40" as="geometry"/>
                </mxCell>
                <mxCell id="8" value="" style="rounded=1;whiteSpace=wrap;html=1;strokeWidth=2;fillWeight=4;hachureGap=8;hachureAngle=45;fillColor=#1ba1e2;sketch=1;" vertex="1" parent="1">
                    <mxGeometry x="90" y="130" width="190" height="30" as="geometry"/>
                </mxCell>
                <mxCell id="9" value="" style="rounded=1;whiteSpace=wrap;html=1;strokeWidth=2;fillWeight=4;hachureGap=8;hachureAngle=45;fillColor=#1ba1e2;sketch=1;" vertex="1" parent="1">
                    <mxGeometry x="90" y="170" width="170" height="20" as="geometry"/>
                </mxCell>
                <mxCell id="17" value="Choose File" style="fillColor=#FEFEFE;strokeColor=#AAAAAA;fontSize=14;gradientColor=#F0F0F0;" vertex="1" parent="1">
                    <mxGeometry x="90" y="200" width="130" height="10" as="geometry"/>
                </mxCell>
                <mxCell id="19" value="Choose File" style="fillColor=#FEFEFE;strokeColor=#AAAAAA;fontSize=14;gradientColor=#F0F0F0;" vertex="1" parent="1">
                    <mxGeometry x="90" y="220" width="130" height="10" as="geometry"/>
                </mxCell>
                <mxCell id="20" value="" style="sketch=0;outlineConnect=0;fontColor=#232F3E;gradientColor=none;fillColor=#D45B07;strokeColor=none;dashed=0;verticalLabelPosition=bottom;verticalAlign=top;align=center;html=1;fontSize=12;fontStyle=0;aspect=fixed;pointerEvents=1;shape=mxgraph.aws4.container_registry_image;" vertex="1" parent="1">
                    <mxGeometry x="330" y="171" width="118" height="118" as="geometry"/>
                </mxCell>
            </root>
        </mxGraphModel>
    </diagram>
    <diagram name="Copy of Page-1" id="QwfgNwJL2slWAlXOqMl6">
        <mxGraphModel dx="520" dy="429" grid="1" gridSize="10" guides="1" tooltips="1" connect="1" arrows="1" fold="1" page="1" pageScale="1" pageWidth="850" pageHeight="1100" math="0" shadow="0">
            <root>
                <mxCell id="BxfgfIIPwEnANMCRmkX6-0"/>
                <mxCell id="BxfgfIIPwEnANMCRmkX6-1" parent="BxfgfIIPwEnANMCRmkX6-0"/>
                <mxCell id="BxfgfIIPwEnANMCRmkX6-2" value="" style="rounded=0;whiteSpace=wrap;html=1;" vertex="1" parent="BxfgfIIPwEnANMCRmkX6-1">
                    <mxGeometry x="80" y="80" width="400" height="300" as="geometry"/>
                </mxCell>
                <mxCell id="BxfgfIIPwEnANMCRmkX6-3" value="border" style="rounded=0;whiteSpace=wrap;html=1;" vertex="1" parent="BxfgfIIPwEnANMCRmkX6-1">
                    <mxGeometry x="80" y="80" width="400" height="40" as="geometry"/>
                </mxCell>
                <mxCell id="BxfgfIIPwEnANMCRmkX6-4" value="Divide" style="labelPosition=center;verticalLabelPosition=middle;align=center;html=1;shape=mxgraph.basic.button;dx=10;" vertex="1" parent="BxfgfIIPwEnANMCRmkX6-1">
                    <mxGeometry x="90" y="240" width="100" height="40" as="geometry"/>
                </mxCell>
                <mxCell id="BxfgfIIPwEnANMCRmkX6-5" value="" style="rounded=1;whiteSpace=wrap;html=1;strokeWidth=2;fillWeight=4;hachureGap=8;hachureAngle=45;fillColor=#1ba1e2;sketch=1;" vertex="1" parent="BxfgfIIPwEnANMCRmkX6-1">
                    <mxGeometry x="90" y="130" width="190" height="30" as="geometry"/>
                </mxCell>
                <mxCell id="BxfgfIIPwEnANMCRmkX6-6" value="" style="rounded=1;whiteSpace=wrap;html=1;strokeWidth=2;fillWeight=4;hachureGap=8;hachureAngle=45;fillColor=#1ba1e2;sketch=1;" vertex="1" parent="BxfgfIIPwEnANMCRmkX6-1">
                    <mxGeometry x="90" y="170" width="170" height="20" as="geometry"/>
                </mxCell>
                <mxCell id="BxfgfIIPwEnANMCRmkX6-7" value="Choose File" style="fillColor=#FEFEFE;strokeColor=#AAAAAA;fontSize=14;gradientColor=#F0F0F0;" vertex="1" parent="BxfgfIIPwEnANMCRmkX6-1">
                    <mxGeometry x="90" y="200" width="130" height="10" as="geometry"/>
                </mxCell>
                <mxCell id="BxfgfIIPwEnANMCRmkX6-8" value="Choose File" style="fillColor=#FEFEFE;strokeColor=#AAAAAA;fontSize=14;gradientColor=#F0F0F0;" vertex="1" parent="BxfgfIIPwEnANMCRmkX6-1">
                    <mxGeometry x="90" y="220" width="130" height="10" as="geometry"/>
                </mxCell>
                <mxCell id="BxfgfIIPwEnANMCRmkX6-9" value="" style="sketch=0;outlineConnect=0;fontColor=#232F3E;gradientColor=none;fillColor=#D45B07;strokeColor=none;dashed=0;verticalLabelPosition=bottom;verticalAlign=top;align=center;html=1;fontSize=12;fontStyle=0;aspect=fixed;pointerEvents=1;shape=mxgraph.aws4.container_registry_image;" vertex="1" parent="BxfgfIIPwEnANMCRmkX6-1">
                    <mxGeometry x="330" y="171" width="118" height="118" as="geometry"/>
                </mxCell>
                <mxCell id="BxfgfIIPwEnANMCRmkX6-10" value="" style="rounded=1;whiteSpace=wrap;html=1;strokeWidth=2;fillWeight=4;hachureGap=8;hachureAngle=45;fillColor=#1ba1e2;sketch=1;" vertex="1" parent="BxfgfIIPwEnANMCRmkX6-1">
                    <mxGeometry x="90" y="290" width="130" height="10" as="geometry"/>
                </mxCell>
            </root>
        </mxGraphModel>
    </diagram>
</mxfile>